<svg xmlns="http://www.w3.org/2000/svg" viewBox="0 0 440 228">
  <defs><pattern id="d" width="20" height="20" patternUnits="userSpaceOnUse"><circle cx="1.4" cy="1.4" r="1" fill="#e8e9ec" opacity="0.08"/></pattern></defs>
  <rect width="440" height="228" rx="16" fill="#0c0e12"/>
  <rect width="440" height="228" rx="16" fill="url(#d)"/>
  <rect x="0.5" y="0.5" width="439" height="227" rx="16" fill="none" stroke="#21252d"/>
  <text x="32" y="36" font-size="11" letter-spacing="3" fill="#697180" font-family="'SF Mono',Menlo,Consolas,monospace">SEOK05 · COMMIT O'CLOCK</text>
  <text x="32" y="62" font-size="16.5" font-weight="700" fill="#e8e9ec" font-family="'Apple SD Gothic Neo','Malgun Gothic',sans-serif">커밋 시계를 보니, 아침형이네요</text><text x="34" y="96" font-size="13" font-family="'SF Mono',Menlo,Consolas,monospace" fill="#697180">1</text><text x="56" y="96" font-size="13" font-family="'Apple SD Gothic Neo','Malgun Gothic',sans-serif">🌅</text><text x="80" y="96" font-size="13" font-family="'Apple SD Gothic Neo','Malgun Gothic',sans-serif" fill="#e8e9ec" font-weight="700">아침</text><text x="185" y="96" font-size="12.5" font-family="'SF Mono',Menlo,Consolas,monospace" fill="#939aa7" text-anchor="end">19 commits</text><rect x="200" y="86" width="150" height="10" rx="5" fill="#1a1e26"/><rect x="200" y="86" width="150" height="10" rx="5" fill="#a19bff"/><text x="412" y="96" font-size="12.5" font-family="'SF Mono',Menlo,Consolas,monospace" fill="#e8e9ec" text-anchor="end" font-weight="700">52.8%</text><text x="34" y="126" font-size="13" font-family="'SF Mono',Menlo,Consolas,monospace" fill="#697180">2</text><text x="56" y="126" font-size="13" font-family="'Apple SD Gothic Neo','Malgun Gothic',sans-serif">☀️</text><text x="80" y="126" font-size="13" font-family="'Apple SD Gothic Neo','Malgun Gothic',sans-serif" fill="#939aa7" font-weight="400">낮</text><text x="185" y="126" font-size="12.5" font-family="'SF Mono',Menlo,Consolas,monospace" fill="#939aa7" text-anchor="end">8 commits</text><rect x="200" y="116" width="150" height="10" rx="5" fill="#1a1e26"/><rect x="200" y="116" width="63" height="10" rx="5" fill="#697180"/><text x="412" y="126" font-size="12.5" font-family="'SF Mono',Menlo,Consolas,monospace" fill="#697180" text-anchor="end" font-weight="400">22.2%</text><text x="34" y="156" font-size="13" font-family="'SF Mono',Menlo,Consolas,monospace" fill="#697180">3</text><text x="56" y="156" font-size="13" font-family="'Apple SD Gothic Neo','Malgun Gothic',sans-serif">🌆</text><text x="80" y="156" font-size="13" font-family="'Apple SD Gothic Neo','Malgun Gothic',sans-serif" fill="#939aa7" font-weight="400">저녁</text><text x="185" y="156" font-size="12.5" font-family="'SF Mono',Menlo,Consolas,monospace" fill="#939aa7" text-anchor="end">4 commits</text><rect x="200" y="146" width="150" height="10" rx="5" fill="#1a1e26"/><rect x="200" y="146" width="32" height="10" rx="5" fill="#697180"/><text x="412" y="156" font-size="12.5" font-family="'SF Mono',Menlo,Consolas,monospace" fill="#697180" text-anchor="end" font-weight="400">11.1%</text><text x="34" y="186" font-size="13" font-family="'SF Mono',Menlo,Consolas,monospace" fill="#697180">4</text><text x="56" y="186" font-size="13" font-family="'Apple SD Gothic Neo','Malgun Gothic',sans-serif">🌙</text><text x="80" y="186" font-size="13" font-family="'Apple SD Gothic Neo','Malgun Gothic',sans-serif" fill="#939aa7" font-weight="400">밤</text><text x="185" y="186" font-size="12.5" font-family="'SF Mono',Menlo,Consolas,monospace" fill="#939aa7" text-anchor="end">5 commits</text><rect x="200" y="176" width="150" height="10" rx="5" fill="#1a1e26"/><rect x="200" y="176" width="39" height="10" rx="5" fill="#697180"/><text x="412" y="186" font-size="12.5" font-family="'SF Mono',Menlo,Consolas,monospace" fill="#697180" text-anchor="end" font-weight="400">13.9%</text><text x="32" y="212" font-size="10.5" fill="#697180" font-family="'Apple SD Gothic Neo','Malgun Gothic',sans-serif">공개 저장소 기본 브랜치 · 커밋에 적힌 현지 시각 기준</text>
</svg>
