<svg xmlns="http://www.w3.org/2000/svg" viewBox="0 0 452 236">
  <rect x="10.5" y="0.5" width="431" height="235" rx="6" fill="#0d1117" stroke="#30363d"/>
  <svg x="34" y="30" width="18" height="18" viewBox="0 0 16 16"><path fill="#4493f8" d="M8 12a4 4 0 1 1 0-8 4 4 0 0 1 0 8Zm0-1.5a2.5 2.5 0 1 0 0-5 2.5 2.5 0 0 0 0 5Zm5.657-8.157a.75.75 0 0 1 0 1.061l-1.061 1.06a.749.749 0 0 1-1.275-.326.749.749 0 0 1 .215-.734l1.06-1.06a.75.75 0 0 1 1.06 0Zm-9.193 9.193a.75.75 0 0 1 0 1.06l-1.06 1.061a.75.75 0 1 1-1.061-1.06l1.06-1.061a.75.75 0 0 1 1.061 0ZM8 0a.75.75 0 0 1 .75.75v1.5a.75.75 0 0 1-1.5 0V.75A.75.75 0 0 1 8 0ZM3 8a.75.75 0 0 1-.75.75H.75a.75.75 0 0 1 0-1.5h1.5A.75.75 0 0 1 3 8Zm13 0a.75.75 0 0 1-.75.75h-1.5a.75.75 0 0 1 0-1.5h1.5A.75.75 0 0 1 16 8Zm-8 5a.75.75 0 0 1 .75.75v1.5a.75.75 0 0 1-1.5 0v-1.5A.75.75 0 0 1 8 13Zm3.536-1.464a.75.75 0 0 1 1.06 0l1.061 1.06a.75.75 0 0 1-1.06 1.061l-1.061-1.06a.75.75 0 0 1 0-1.061ZM2.343 2.343a.75.75 0 0 1 1.061 0l1.06 1.061a.751.751 0 0 1-.018 1.042.751.751 0 0 1-1.042.018l-1.06-1.06a.75.75 0 0 1 0-1.06Z"/></svg>
  <text x="62" y="45" font-size="19" font-weight="600" fill="#4493f8" font-family="-apple-system,BlinkMacSystemFont,'Segoe UI','Noto Sans',Helvetica,Arial,sans-serif">I'm an early bird</text>
  
  <text x="34" y="90" font-size="14.5" font-family="'SFMono-Regular',Consolas,'Liberation Mono',Menlo,monospace" fill="#e6edf3" font-weight="600">Morning</text><text x="206" y="90" font-size="13.5" font-family="'SFMono-Regular',Consolas,'Liberation Mono',Menlo,monospace" fill="#8d96a0" text-anchor="end">35 commits</text><rect x="218" y="78" width="126" height="13" rx="3" fill="#21262d"/><rect x="218" y="78" width="126" height="13" rx="3" fill="#4493f8"/><text x="418" y="90" font-size="13.5" font-family="'SFMono-Regular',Consolas,'Liberation Mono',Menlo,monospace" fill="#e6edf3" text-anchor="end" font-weight="600">48.6%</text><text x="34" y="124" font-size="14.5" font-family="'SFMono-Regular',Consolas,'Liberation Mono',Menlo,monospace" fill="#8d96a0" font-weight="400">Daytime</text><text x="206" y="124" font-size="13.5" font-family="'SFMono-Regular',Consolas,'Liberation Mono',Menlo,monospace" fill="#8d96a0" text-anchor="end">28 commits</text><rect x="218" y="112" width="126" height="13" rx="3" fill="#21262d"/><rect x="218" y="112" width="101" height="13" rx="3" fill="#6e7681"/><text x="418" y="124" font-size="13.5" font-family="'SFMono-Regular',Consolas,'Liberation Mono',Menlo,monospace" fill="#6e7681" text-anchor="end" font-weight="400">38.9%</text><text x="34" y="158" font-size="14.5" font-family="'SFMono-Regular',Consolas,'Liberation Mono',Menlo,monospace" fill="#8d96a0" font-weight="400">Evening</text><text x="206" y="158" font-size="13.5" font-family="'SFMono-Regular',Consolas,'Liberation Mono',Menlo,monospace" fill="#8d96a0" text-anchor="end">4 commits</text><rect x="218" y="146" width="126" height="13" rx="3" fill="#21262d"/><rect x="218" y="146" width="14" height="13" rx="3" fill="#6e7681"/><text x="418" y="158" font-size="13.5" font-family="'SFMono-Regular',Consolas,'Liberation Mono',Menlo,monospace" fill="#6e7681" text-anchor="end" font-weight="400">5.6%</text><text x="34" y="192" font-size="14.5" font-family="'SFMono-Regular',Consolas,'Liberation Mono',Menlo,monospace" fill="#8d96a0" font-weight="400">Night</text><text x="206" y="192" font-size="13.5" font-family="'SFMono-Regular',Consolas,'Liberation Mono',Menlo,monospace" fill="#8d96a0" text-anchor="end">5 commits</text><rect x="218" y="180" width="126" height="13" rx="3" fill="#21262d"/><rect x="218" y="180" width="18" height="13" rx="3" fill="#6e7681"/><text x="418" y="192" font-size="13.5" font-family="'SFMono-Regular',Consolas,'Liberation Mono',Menlo,monospace" fill="#6e7681" text-anchor="end" font-weight="400">6.9%</text><text x="34" y="218" font-size="11" fill="#6e7681" font-family="-apple-system,BlinkMacSystemFont,'Segoe UI','Noto Sans',Helvetica,Arial,sans-serif">public repos · author-local commit time</text>
</svg>
